<svg xmlns="http://www.w3.org/2000/svg" width="22.779" height="14.281" viewBox="0 0 22.779 14.281">
  <path id="Icon_awesome-behance" data-name="Icon awesome-behance" d="M9.175,11.7a3,3,0,0,0,1.914-2.926c0-2.792-2.08-3.472-4.481-3.472H0V19.317H6.794c2.547,0,4.939-1.222,4.939-4.069A3.377,3.377,0,0,0,9.175,11.7ZM3.081,7.694H5.972c1.111,0,2.112.312,2.112,1.6,0,1.19-.779,1.669-1.878,1.669H3.081Zm3.294,9.242H3.081v-3.86H6.438c1.356,0,2.215.566,2.215,2,0,1.416-1.024,1.859-2.278,1.859ZM20.553,7.417H14.87V6.037h5.683v1.38Zm2.227,6.972c0-3-1.756-5.5-4.939-5.5a5.1,5.1,0,0,0-5.193,5.371c0,3.16,1.989,5.327,5.193,5.327a4.524,4.524,0,0,0,4.75-3.413H20.13a2.309,2.309,0,0,1-2.2,1.325,2.3,2.3,0,0,1-2.491-2.582h7.32C22.767,14.745,22.779,14.567,22.779,14.39Zm-7.34-1.234a2.178,2.178,0,0,1,2.314-2.167,2.078,2.078,0,0,1,2.223,2.167Z" transform="translate(0 -5.302)" fill="#181544"/>
</svg>
