<svg xmlns="http://www.w3.org/2000/svg" width="20.778" height="20.778" viewBox="0 0 20.778 20.778">
  <g id="Icon_feather-instagram" data-name="Icon feather-instagram" transform="translate(1 1)">
    <path id="Path_55045" data-name="Path 55045" d="M7.694,3h9.389a4.694,4.694,0,0,1,4.694,4.694v9.389a4.694,4.694,0,0,1-4.694,4.694H7.694A4.694,4.694,0,0,1,3,17.083V7.694A4.694,4.694,0,0,1,7.694,3Z" transform="translate(-3 -3)" fill="none" stroke="#181544" stroke-linecap="round" stroke-linejoin="round" stroke-width="2"/>
    <path id="Path_55046" data-name="Path 55046" d="M19.535,15.14a3.756,3.756,0,1,1-3.164-3.164,3.756,3.756,0,0,1,3.164,3.164Z" transform="translate(-6.391 -6.342)" fill="none" stroke="#181544" stroke-linecap="round" stroke-linejoin="round" stroke-width="2"/>
    <path id="Path_55047" data-name="Path 55047" d="M26.25,9.75h0" transform="translate(-11.697 -5.525)" fill="none" stroke="#181544" stroke-linecap="round" stroke-linejoin="round" stroke-width="2"/>
  </g>
</svg>
