<svg xmlns="http://www.w3.org/2000/svg" xmlns:xlink="http://www.w3.org/1999/xlink" width="192" height="192" viewBox="0 0 192 192">
  <defs>
    <filter id="Ellipse_459" x="0" y="0" width="192" height="192" filterUnits="userSpaceOnUse">
      <feOffset input="SourceAlpha"/>
      <feGaussianBlur stdDeviation="10" result="blur"/>
      <feFlood flood-color="#ffb951" flood-opacity="0.349"/>
      <feComposite operator="in" in2="blur"/>
      <feComposite in="SourceGraphic"/>
    </filter>
  </defs>
  <g id="Group_563" data-name="Group 563" transform="translate(-125 -1109)">
    <g id="svgexport-10_92_" data-name="svgexport-10 (92)" transform="translate(236.931 906.842)">
      <g id="Group_546" data-name="Group 546" transform="translate(0.002 243.158)">
        <g id="Group_545" data-name="Group 545" transform="translate(0 0)">
          <path id="Path_55062" data-name="Path 55062" d="M62.4,262.358h0a.4.4,0,0,1-.379-.289,9.6,9.6,0,0,0-13.735-5.782,1.163,1.163,0,0,1-1.518-.361,7.205,7.205,0,0,0-7.651-2.969,1.158,1.158,0,0,1-1.38-.746A13.2,13.2,0,0,0,12,256.358c0,.166,0,.33.011.494a.685.685,0,0,1-.146.449l-.01.013a.7.7,0,0,1-.517.266,12,12,0,0,0,.813,23.978H62.258a9.6,9.6,0,1,0,.143-19.2Z" transform="translate(-0.002 -243.158)" fill="#ecf4ff"/>
          <path id="Path_55063" data-name="Path 55063" d="M62.4,262.358h0a.4.4,0,0,1-.379-.289,9.6,9.6,0,0,0-13.735-5.782,1.163,1.163,0,0,1-1.518-.361,7.205,7.205,0,0,0-7.651-2.969,1.158,1.158,0,0,1-1.38-.746A13.2,13.2,0,0,0,12,256.358c0,.166,0,.33.011.494a.685.685,0,0,1-.146.449l-.01.013a.7.7,0,0,1-.517.266,12,12,0,0,0,.813,23.978H62.258a9.6,9.6,0,1,0,.143-19.2Z" transform="translate(-0.002 -243.158)" fill="#ecf4ff"/>
          <path id="Path_55064" data-name="Path 55064" d="M369.487,334.422h0a.4.4,0,0,1-.379-.289,9.6,9.6,0,0,0-10.883-6.766,9.612,9.612,0,0,1,7.551,6.766.4.4,0,0,0,.379.289h0a9.6,9.6,0,1,1-.143,19.2h3.332a9.6,9.6,0,1,0,.143-19.2Z" transform="translate(-307.087 -315.222)" fill="#daeaff"/>
          <path id="Path_55065" data-name="Path 55065" d="M89.274,343.483a1.086,1.086,0,1,0,2.173,0,14.15,14.15,0,0,0-13.056-14.09c-.02.294-.031.591-.031.89,0,.166,0,.33.011.494a.685.685,0,0,1-.146.449l-.01.013a.7.7,0,0,1-.517.266c-.1.005-.191.015-.287.023A11.97,11.97,0,0,1,89.274,343.483Z" transform="translate(-66.361 -317.083)" fill="#ddeafb"/>
          <g id="Group_544" data-name="Group 544" transform="translate(30.473 8.081)">
            <path id="Path_55066" data-name="Path 55066" d="M222,301.511a1.154,1.154,0,0,1-1.26-.768q-.164-.495-.365-.972a10.343,10.343,0,0,0-6.9,9.739,1.086,1.086,0,1,0,2.173,0A8.223,8.223,0,0,1,222,301.517v-.006Z" transform="translate(-213.477 -299.771)" fill="#ddeafb"/>
          </g>
          <path id="Path_55067" data-name="Path 55067" d="M364.447,442.194a1.087,1.087,0,1,0-2.173,0,11.219,11.219,0,0,0,4.6,9.057h5.943c.116,0,.232,0,.347-.009A9.066,9.066,0,0,1,364.447,442.194Z" transform="translate(-310.561 -412.851)" fill="#ddeafb"/>
        </g>
      </g>
    </g>
    <g transform="matrix(1, 0, 0, 1, 125, 1109)" filter="url(#Ellipse_459)">
      <circle id="Ellipse_459-2" data-name="Ellipse 459" cx="66" cy="66" r="66" transform="translate(30 30)" fill="#ffb951"/>
    </g>
    <g id="svgexport-10_94_" data-name="svgexport-10 (94)" transform="translate(197.734 1177.574)">
      <g id="Group_529" data-name="Group 529" transform="translate(7.334)">
        <path id="Path_55049" data-name="Path 55049" d="M35.494,0H11.039a3.715,3.715,0,0,0-3.7,3.7V51.146a3.716,3.716,0,0,0,3.7,3.706H35.494a3.714,3.714,0,0,0,3.7-3.7V3.7A3.715,3.715,0,0,0,35.494,0ZM19.354,2.671h7.823a.449.449,0,0,1,0,.9H19.354a.449.449,0,0,1,0-.9ZM23.266,53a1.853,1.853,0,1,1,1.852-1.854A1.852,1.852,0,0,1,23.266,53ZM36.62,48H9.912V5.875H36.62Z" transform="translate(-7.334)" fill="#fff"/>
      </g>
    </g>
    <g id="svgexport-10_92_2" data-name="svgexport-10 (92)" transform="translate(133.067 961.842)">
      <g id="Group_546-2" data-name="Group 546" transform="translate(0.002 243.158)">
        <g id="Group_545-2" data-name="Group 545" transform="translate(0 0)">
          <path id="Path_55062-2" data-name="Path 55062" d="M62.4,262.358h0a.4.4,0,0,1-.379-.289,9.6,9.6,0,0,0-13.735-5.782,1.163,1.163,0,0,1-1.518-.361,7.205,7.205,0,0,0-7.651-2.969,1.158,1.158,0,0,1-1.38-.746A13.2,13.2,0,0,0,12,256.358c0,.166,0,.33.011.494a.685.685,0,0,1-.146.449l-.01.013a.7.7,0,0,1-.517.266,12,12,0,0,0,.813,23.978H62.258a9.6,9.6,0,1,0,.143-19.2Z" transform="translate(-0.002 -243.158)" fill="#ecf4ff"/>
          <path id="Path_55063-2" data-name="Path 55063" d="M62.4,262.358h0a.4.4,0,0,1-.379-.289,9.6,9.6,0,0,0-13.735-5.782,1.163,1.163,0,0,1-1.518-.361,7.205,7.205,0,0,0-7.651-2.969,1.158,1.158,0,0,1-1.38-.746A13.2,13.2,0,0,0,12,256.358c0,.166,0,.33.011.494a.685.685,0,0,1-.146.449l-.01.013a.7.7,0,0,1-.517.266,12,12,0,0,0,.813,23.978H62.258a9.6,9.6,0,1,0,.143-19.2Z" transform="translate(-0.002 -243.158)" fill="#ecf4ff"/>
          <path id="Path_55064-2" data-name="Path 55064" d="M369.487,334.422h0a.4.4,0,0,1-.379-.289,9.6,9.6,0,0,0-10.883-6.766,9.612,9.612,0,0,1,7.551,6.766.4.4,0,0,0,.379.289h0a9.6,9.6,0,1,1-.143,19.2h3.332a9.6,9.6,0,1,0,.143-19.2Z" transform="translate(-307.087 -315.222)" fill="#daeaff"/>
          <path id="Path_55065-2" data-name="Path 55065" d="M89.274,343.483a1.086,1.086,0,1,0,2.173,0,14.15,14.15,0,0,0-13.056-14.09c-.02.294-.031.591-.031.89,0,.166,0,.33.011.494a.685.685,0,0,1-.146.449l-.01.013a.7.7,0,0,1-.517.266c-.1.005-.191.015-.287.023A11.97,11.97,0,0,1,89.274,343.483Z" transform="translate(-66.361 -317.083)" fill="#ddeafb"/>
          <g id="Group_544-2" data-name="Group 544" transform="translate(30.473 8.081)">
            <path id="Path_55066-2" data-name="Path 55066" d="M222,301.511a1.154,1.154,0,0,1-1.26-.768q-.164-.495-.365-.972a10.343,10.343,0,0,0-6.9,9.739,1.086,1.086,0,1,0,2.173,0A8.223,8.223,0,0,1,222,301.517v-.006Z" transform="translate(-213.477 -299.771)" fill="#ddeafb"/>
          </g>
          <path id="Path_55067-2" data-name="Path 55067" d="M364.447,442.194a1.087,1.087,0,1,0-2.173,0,11.219,11.219,0,0,0,4.6,9.057h5.943c.116,0,.232,0,.347-.009A9.066,9.066,0,0,1,364.447,442.194Z" transform="translate(-310.561 -412.851)" fill="#ddeafb"/>
        </g>
      </g>
    </g>
  </g>
</svg>
