<svg xmlns="http://www.w3.org/2000/svg" xmlns:xlink="http://www.w3.org/1999/xlink" width="200.999" height="198" viewBox="0 0 200.999 198">
  <defs>
    <filter id="Ellipse_461" x="2.999" y="0" width="198" height="198" filterUnits="userSpaceOnUse">
      <feOffset input="SourceAlpha"/>
      <feGaussianBlur stdDeviation="11" result="blur"/>
      <feFlood flood-color="#c19be0" flood-opacity="0.349"/>
      <feComposite operator="in" in2="blur"/>
      <feComposite in="SourceGraphic"/>
    </filter>
  </defs>
  <g id="Group_561" data-name="Group 561" transform="translate(-995.001 -1106)">
    <g id="svgexport-10_92_" data-name="svgexport-10 (92)" transform="translate(1103.998 974.744)">
      <g id="Group_546" data-name="Group 546" transform="translate(0.002 243.158)">
        <g id="Group_545" data-name="Group 545" transform="translate(0 0)">
          <path id="Path_55062" data-name="Path 55062" d="M62.4,262.358h0a.4.4,0,0,1-.379-.289,9.6,9.6,0,0,0-13.735-5.782,1.163,1.163,0,0,1-1.518-.361,7.205,7.205,0,0,0-7.651-2.969,1.158,1.158,0,0,1-1.38-.746A13.2,13.2,0,0,0,12,256.358c0,.166,0,.33.011.494a.685.685,0,0,1-.146.449l-.01.013a.7.7,0,0,1-.517.266,12,12,0,0,0,.813,23.978H62.258a9.6,9.6,0,1,0,.143-19.2Z" transform="translate(-0.002 -243.158)" fill="#ecf4ff"/>
          <path id="Path_55063" data-name="Path 55063" d="M62.4,262.358h0a.4.4,0,0,1-.379-.289,9.6,9.6,0,0,0-13.735-5.782,1.163,1.163,0,0,1-1.518-.361,7.205,7.205,0,0,0-7.651-2.969,1.158,1.158,0,0,1-1.38-.746A13.2,13.2,0,0,0,12,256.358c0,.166,0,.33.011.494a.685.685,0,0,1-.146.449l-.01.013a.7.7,0,0,1-.517.266,12,12,0,0,0,.813,23.978H62.258a9.6,9.6,0,1,0,.143-19.2Z" transform="translate(-0.002 -243.158)" fill="#ecf4ff"/>
          <path id="Path_55064" data-name="Path 55064" d="M369.487,334.422h0a.4.4,0,0,1-.379-.289,9.6,9.6,0,0,0-10.883-6.766,9.612,9.612,0,0,1,7.551,6.766.4.4,0,0,0,.379.289h0a9.6,9.6,0,1,1-.143,19.2h3.332a9.6,9.6,0,1,0,.143-19.2Z" transform="translate(-307.087 -315.222)" fill="#daeaff"/>
          <path id="Path_55065" data-name="Path 55065" d="M89.274,343.483a1.086,1.086,0,1,0,2.173,0,14.15,14.15,0,0,0-13.056-14.09c-.02.294-.031.591-.031.89,0,.166,0,.33.011.494a.685.685,0,0,1-.146.449l-.01.013a.7.7,0,0,1-.517.266c-.1.005-.191.015-.287.023A11.97,11.97,0,0,1,89.274,343.483Z" transform="translate(-66.361 -317.083)" fill="#ddeafb"/>
          <g id="Group_544" data-name="Group 544" transform="translate(30.473 8.081)">
            <path id="Path_55066" data-name="Path 55066" d="M222,301.511a1.154,1.154,0,0,1-1.26-.768q-.164-.495-.365-.972a10.343,10.343,0,0,0-6.9,9.739,1.086,1.086,0,1,0,2.173,0A8.223,8.223,0,0,1,222,301.517v-.006Z" transform="translate(-213.477 -299.771)" fill="#ddeafb"/>
          </g>
          <path id="Path_55067" data-name="Path 55067" d="M364.447,442.194a1.087,1.087,0,1,0-2.173,0,11.219,11.219,0,0,0,4.6,9.057h5.943c.116,0,.232,0,.347-.009A9.066,9.066,0,0,1,364.447,442.194Z" transform="translate(-310.561 -412.851)" fill="#ddeafb"/>
        </g>
      </g>
    </g>
    <g transform="matrix(1, 0, 0, 1, 995, 1106)" filter="url(#Ellipse_461)">
      <circle id="Ellipse_461-2" data-name="Ellipse 461" cx="66" cy="66" r="66" transform="translate(36 33)" fill="#c19be0"/>
    </g>
    <g id="svgexport-10_98_" data-name="svgexport-10 (98)" transform="translate(1061.439 1173.005)">
      <g id="Group_550" data-name="Group 550" transform="translate(52.642 32.144)">
        <g id="Group_549" data-name="Group 549">
          <path id="Path_55069" data-name="Path 55069" d="M356.2,233.787a1.1,1.1,0,0,0-1.973.506l-.612,4.287a1.082,1.082,0,0,1-.057.161,19.815,19.815,0,0,0,2.695-4.884Z" transform="translate(-353.559 -233.346)" fill="#fff"/>
        </g>
      </g>
      <g id="Group_552" data-name="Group 552" transform="translate(16.941 5.798)">
        <g id="Group_551" data-name="Group 551">
          <path id="Path_55070" data-name="Path 55070" d="M129.092,74.645a1.221,1.221,0,0,1-.155-.01L122.39,73.7a1.1,1.1,0,0,1-.935-1.247h0l.612-4.287a1.1,1.1,0,0,0-1.751-1.037l-3.465,2.6a1.1,1.1,0,0,1-1.543-.22h0l-3.968-5.29a1.1,1.1,0,0,1,.22-1.543l3.464-2.6a1.1,1.1,0,0,0-.506-1.973l-4.287-.613a1.1,1.1,0,0,1-.936-1.246h0l.936-6.546a1.1,1.1,0,0,1,1.246-.936h0l4.287.613a1.1,1.1,0,0,0,1.1-.53,1.079,1.079,0,0,0-.066-1.223l-2.6-3.463a1.1,1.1,0,0,1,.22-1.543l.625-.468a20.21,20.21,0,0,0-3.035.082,19.839,19.839,0,0,0-8.445,36.42,6.32,6.32,0,0,1,2.989,5.294v4.454a3.306,3.306,0,0,0,3.306,3.306h8.817a3.306,3.306,0,0,0,3.306-3.306V84.03a6.493,6.493,0,0,1,3.053-5.425,19.972,19.972,0,0,0,4.6-4.122A1.1,1.1,0,0,1,129.092,74.645ZM115.378,88.392h-2.2V85.086h2.2Zm-2.2-5.511a7.036,7.036,0,0,0-4.519-6.569,15.43,15.43,0,0,1-2.6-27.428l1.169,1.865a13.226,13.226,0,0,0,2.229,23.512,9.222,9.222,0,0,1,5.927,8.62Z" transform="translate(-94.426 -42.12)" fill="#fff"/>
        </g>
      </g>
      <g id="Group_554" data-name="Group 554" transform="translate(32.382 60.888)">
        <g id="Group_553" data-name="Group 553">
          <path id="Path_55071" data-name="Path 55071" d="M206.5,441.987v1.1a2.2,2.2,0,0,0,2.2,2.2h4.409a2.2,2.2,0,0,0,2.2-2.2v-1.1Z" transform="translate(-206.503 -441.987)" fill="#fff"/>
        </g>
      </g>
      <g id="Group_556" data-name="Group 556" transform="translate(5.639 28.551)">
        <g id="Group_555" data-name="Group 555" transform="translate(0)">
          <path id="Path_55072" data-name="Path 55072" d="M32.243,221.97a20.858,20.858,0,0,1-1.884-1.377A6.6,6.6,0,1,1,23.695,211a20.989,20.989,0,0,1-.873-3.737l-.193.917a2.2,2.2,0,0,1-3.407,1.362l-2.292-1.574-2.008,2,1.578,2.295a2.2,2.2,0,0,1-1.361,3.408l-2.748.579v2.619l2.748.579a2.2,2.2,0,0,1,1.36,3.409l-1.577,2.283,2.008,2,2.29-1.578a2.2,2.2,0,0,1,3.408,1.361l.578,2.752h2.62l.578-2.748a2.2,2.2,0,0,1,3.408-1.361L32.1,227.15l2.364-2.364A5.38,5.38,0,0,0,32.243,221.97Z" transform="translate(-12.391 -207.267)" fill="#fff"/>
        </g>
      </g>
      <g id="Group_558" data-name="Group 558" transform="translate(32.382 56.48)">
        <g id="Group_557" data-name="Group 557">
          <rect id="Rectangle_737" data-name="Rectangle 737" width="8.817" height="2.204" fill="#fff"/>
        </g>
      </g>
      <g id="Group_560" data-name="Group 560" transform="translate(34.145 2.622)">
        <g id="Group_559" data-name="Group 559">
          <path id="Path_55073" data-name="Path 55073" d="M249.468,35.441a3.306,3.306,0,0,1-1.515-5.919l2.582-1.938-2.645-3.527-2.582,1.936a3.306,3.306,0,0,1-5.258-3.108l.456-3.2-4.363-.623-.456,3.2a3.306,3.306,0,0,1-5.919,1.515l-1.938-2.587L224.3,23.837l1.937,2.582a3.306,3.306,0,0,1-3.114,5.257l-3.2-.456-.626,4.365,3.2.456a3.306,3.306,0,0,1,1.515,5.919L221.433,43.9l2.645,3.527,2.582-1.937a3.306,3.306,0,0,1,5.257,3.114l-.456,3.2,4.373.626.456-3.2a3.306,3.306,0,0,1,5.919-1.515l1.938,2.581,3.527-2.645-1.943-2.587a3.307,3.307,0,0,1,3.109-5.257l3.2.456.623-4.363Zm-13.483,6.914a6.613,6.613,0,1,1,6.613-6.613A6.613,6.613,0,0,1,235.985,42.355Z" transform="translate(-219.303 -19.067)" fill="#fff"/>
        </g>
      </g>
    </g>
    <g id="svgexport-10_92_2" data-name="svgexport-10 (92)" transform="translate(994.999 913.27)">
      <g id="Group_546-2" data-name="Group 546" transform="translate(0.002 243.158)">
        <g id="Group_545-2" data-name="Group 545" transform="translate(0 0)">
          <path id="Path_55062-2" data-name="Path 55062" d="M62.4,262.358h0a.4.4,0,0,1-.379-.289,9.6,9.6,0,0,0-13.735-5.782,1.163,1.163,0,0,1-1.518-.361,7.205,7.205,0,0,0-7.651-2.969,1.158,1.158,0,0,1-1.38-.746A13.2,13.2,0,0,0,12,256.358c0,.166,0,.33.011.494a.685.685,0,0,1-.146.449l-.01.013a.7.7,0,0,1-.517.266,12,12,0,0,0,.813,23.978H62.258a9.6,9.6,0,1,0,.143-19.2Z" transform="translate(-0.002 -243.158)" fill="#ecf4ff"/>
          <path id="Path_55063-2" data-name="Path 55063" d="M62.4,262.358h0a.4.4,0,0,1-.379-.289,9.6,9.6,0,0,0-13.735-5.782,1.163,1.163,0,0,1-1.518-.361,7.205,7.205,0,0,0-7.651-2.969,1.158,1.158,0,0,1-1.38-.746A13.2,13.2,0,0,0,12,256.358c0,.166,0,.33.011.494a.685.685,0,0,1-.146.449l-.01.013a.7.7,0,0,1-.517.266,12,12,0,0,0,.813,23.978H62.258a9.6,9.6,0,1,0,.143-19.2Z" transform="translate(-0.002 -243.158)" fill="#ecf4ff"/>
          <path id="Path_55064-2" data-name="Path 55064" d="M369.487,334.422h0a.4.4,0,0,1-.379-.289,9.6,9.6,0,0,0-10.883-6.766,9.612,9.612,0,0,1,7.551,6.766.4.4,0,0,0,.379.289h0a9.6,9.6,0,1,1-.143,19.2h3.332a9.6,9.6,0,1,0,.143-19.2Z" transform="translate(-307.087 -315.222)" fill="#daeaff"/>
          <path id="Path_55065-2" data-name="Path 55065" d="M89.274,343.483a1.086,1.086,0,1,0,2.173,0,14.15,14.15,0,0,0-13.056-14.09c-.02.294-.031.591-.031.89,0,.166,0,.33.011.494a.685.685,0,0,1-.146.449l-.01.013a.7.7,0,0,1-.517.266c-.1.005-.191.015-.287.023A11.97,11.97,0,0,1,89.274,343.483Z" transform="translate(-66.361 -317.083)" fill="#ddeafb"/>
          <g id="Group_544-2" data-name="Group 544" transform="translate(30.473 8.081)">
            <path id="Path_55066-2" data-name="Path 55066" d="M222,301.511a1.154,1.154,0,0,1-1.26-.768q-.164-.495-.365-.972a10.343,10.343,0,0,0-6.9,9.739,1.086,1.086,0,1,0,2.173,0A8.223,8.223,0,0,1,222,301.517v-.006Z" transform="translate(-213.477 -299.771)" fill="#ddeafb"/>
          </g>
          <path id="Path_55067-2" data-name="Path 55067" d="M364.447,442.194a1.087,1.087,0,1,0-2.173,0,11.219,11.219,0,0,0,4.6,9.057h5.943c.116,0,.232,0,.347-.009A9.066,9.066,0,0,1,364.447,442.194Z" transform="translate(-310.561 -412.851)" fill="#ddeafb"/>
        </g>
      </g>
    </g>
  </g>
</svg>
