<svg xmlns="http://www.w3.org/2000/svg" xmlns:xlink="http://www.w3.org/1999/xlink" width="200.999" height="198" viewBox="0 0 200.999 198">
  <defs>
    <filter id="Ellipse_460" x="2.999" y="0" width="198" height="198" filterUnits="userSpaceOnUse">
      <feOffset input="SourceAlpha"/>
      <feGaussianBlur stdDeviation="11" result="blur"/>
      <feFlood flood-color="#697ce8" flood-opacity="0.349"/>
      <feComposite operator="in" in2="blur"/>
      <feComposite in="SourceGraphic"/>
    </filter>
  </defs>
  <g id="Group_562" data-name="Group 562" transform="translate(-581.001 -1106)">
    <g id="svgexport-10_92_" data-name="svgexport-10 (92)" transform="translate(580.999 948.308)">
      <g id="Group_546" data-name="Group 546" transform="translate(0.002 243.158)">
        <g id="Group_545" data-name="Group 545" transform="translate(0 0)">
          <path id="Path_55062" data-name="Path 55062" d="M62.4,262.358h0a.4.4,0,0,1-.379-.289,9.6,9.6,0,0,0-13.735-5.782,1.163,1.163,0,0,1-1.518-.361,7.205,7.205,0,0,0-7.651-2.969,1.158,1.158,0,0,1-1.38-.746A13.2,13.2,0,0,0,12,256.358c0,.166,0,.33.011.494a.685.685,0,0,1-.146.449l-.01.013a.7.7,0,0,1-.517.266,12,12,0,0,0,.813,23.978H62.258a9.6,9.6,0,1,0,.143-19.2Z" transform="translate(-0.002 -243.158)" fill="#ecf4ff"/>
          <path id="Path_55063" data-name="Path 55063" d="M62.4,262.358h0a.4.4,0,0,1-.379-.289,9.6,9.6,0,0,0-13.735-5.782,1.163,1.163,0,0,1-1.518-.361,7.205,7.205,0,0,0-7.651-2.969,1.158,1.158,0,0,1-1.38-.746A13.2,13.2,0,0,0,12,256.358c0,.166,0,.33.011.494a.685.685,0,0,1-.146.449l-.01.013a.7.7,0,0,1-.517.266,12,12,0,0,0,.813,23.978H62.258a9.6,9.6,0,1,0,.143-19.2Z" transform="translate(-0.002 -243.158)" fill="#ecf4ff"/>
          <path id="Path_55064" data-name="Path 55064" d="M369.487,334.422h0a.4.4,0,0,1-.379-.289,9.6,9.6,0,0,0-10.883-6.766,9.612,9.612,0,0,1,7.551,6.766.4.4,0,0,0,.379.289h0a9.6,9.6,0,1,1-.143,19.2h3.332a9.6,9.6,0,1,0,.143-19.2Z" transform="translate(-307.087 -315.222)" fill="#daeaff"/>
          <path id="Path_55065" data-name="Path 55065" d="M89.274,343.483a1.086,1.086,0,1,0,2.173,0,14.15,14.15,0,0,0-13.056-14.09c-.02.294-.031.591-.031.89,0,.166,0,.33.011.494a.685.685,0,0,1-.146.449l-.01.013a.7.7,0,0,1-.517.266c-.1.005-.191.015-.287.023A11.97,11.97,0,0,1,89.274,343.483Z" transform="translate(-66.361 -317.083)" fill="#ddeafb"/>
          <g id="Group_544" data-name="Group 544" transform="translate(30.473 8.081)">
            <path id="Path_55066" data-name="Path 55066" d="M222,301.511a1.154,1.154,0,0,1-1.26-.768q-.164-.495-.365-.972a10.343,10.343,0,0,0-6.9,9.739,1.086,1.086,0,1,0,2.173,0A8.223,8.223,0,0,1,222,301.517v-.006Z" transform="translate(-213.477 -299.771)" fill="#ddeafb"/>
          </g>
          <path id="Path_55067" data-name="Path 55067" d="M364.447,442.194a1.087,1.087,0,1,0-2.173,0,11.219,11.219,0,0,0,4.6,9.057h5.943c.116,0,.232,0,.347-.009A9.066,9.066,0,0,1,364.447,442.194Z" transform="translate(-310.561 -412.851)" fill="#ddeafb"/>
        </g>
      </g>
    </g>
    <g transform="matrix(1, 0, 0, 1, 581, 1106)" filter="url(#Ellipse_460)">
      <circle id="Ellipse_460-2" data-name="Ellipse 460" cx="66" cy="66" r="66" transform="translate(36 33)" fill="#697ce8"/>
    </g>
    <g id="svgexport-10_97_" data-name="svgexport-10 (97)" transform="translate(649 1106.334)">
      <g id="Group_548" data-name="Group 548" transform="translate(0 74.666)">
        <g id="Group_547" data-name="Group 547" transform="translate(0 0)">
          <path id="Path_55068" data-name="Path 55068" d="M57.489,117.783a5.723,5.723,0,0,0,5.72-5.749l.029-31.619a5.747,5.747,0,0,0-5.749-5.749H11.5a5.747,5.747,0,0,0-5.749,5.749v31.619a5.747,5.747,0,0,0,5.749,5.749H0a5.747,5.747,0,0,0,5.749,5.749H63.237a5.747,5.747,0,0,0,5.749-5.749ZM11.5,80.415H57.488v31.619H11.5Zm23,40.242a2.874,2.874,0,1,1,2.874-2.874A2.883,2.883,0,0,1,34.493,120.657Z" transform="translate(0 -74.666)" fill="#fff"/>
        </g>
      </g>
    </g>
  </g>
</svg>
